<svg xmlns="http://www.w3.org/2000/svg" viewBox="0 0 200 200">
  <g transform="translate(100,100)">
    <path fill="#FF7F3F" fill-opacity="0.3" d="M40,-58.9C52.1,-49.7,62.4,-38.7,68.9,-25.2C75.3,-11.7,77.9,4.3,73.1,17.4C68.3,30.5,56.1,40.8,42.7,50.4C29.3,60,14.6,68.9,-2.3,72.2C-19.2,75.5,-38.5,73.2,-52.1,63.3C-65.8,53.4,-73.9,35.9,-76.5,17.4C-79.1,-1.1,-76.3,-20.6,-66.7,-35.1C-57.1,-49.6,-40.7,-59.1,-26.4,-67.3C-12.1,-75.5,0,-82.4,12.5,-79.8C25,-77.2,37.9,-65.1,40,-58.9Z" />
    <path fill="#9C51B6" fill-opacity="0.2" transform="rotate(45)" d="M38.5,-56.5C49.8,-46.8,58.9,-35.2,62.8,-22.1C66.7,-9.1,65.4,5.5,59.1,17.5C52.8,29.6,41.5,39.2,29.1,47.3C16.7,55.5,3.3,62.2,-10.8,66.1C-24.9,70,-49.8,71.1,-62.1,62.1C-74.4,53.1,-74.1,33.9,-71.2,17.2C-68.3,0.5,-62.8,-13.7,-53.8,-25.1C-44.8,-36.5,-32.3,-45.1,-20.2,-54.2C-8.1,-63.3,3.6,-72.9,15.7,-70.8C27.8,-68.7,40.3,-54.9,38.5,-56.5Z" />
    <path fill="#5F9E4F" fill-opacity="0.2" transform="rotate(90)" d="M36.4,-53.5C47.8,-43.9,58.1,-32.4,63.5,-19.2C68.8,-6,69.2,8.8,63.2,20.8C57.2,32.8,44.9,42,31.7,49.4C18.6,56.8,4.6,62.4,-9.6,64.6C-23.8,66.9,-47.7,65.8,-58.9,55.7C-70.2,45.6,-68.9,26.5,-65.4,10.3C-61.9,-5.9,-56.3,-19.1,-47.1,-29.9C-37.9,-40.7,-25,-49.1,-12.5,-56.6C0,-64.1,12.1,-70.7,24.9,-66.7C37.7,-62.7,51.3,-48.1,36.4,-53.5Z" />
    <path fill="#FF7F3F" fill-opacity="0.2" transform="rotate(135)" d="M33.1,-49.8C43.5,-40.4,52.8,-30.1,58.3,-17.9C63.8,-5.7,65.5,8.4,59.8,19.8C54.1,31.2,41,40,27.6,46.6C14.2,53.2,0.6,57.7,-13.3,56.9C-27.2,56.1,-41.5,50,-51.3,39.7C-61.1,29.4,-66.5,14.7,-66.1,0.3C-65.7,-14.1,-59.5,-28.2,-49.3,-38.2C-39.1,-48.2,-25,-54.1,-12.5,-58.4C0,-62.7,12,-65.4,22.7,-59.2C33.4,-53,42.8,-37.9,33.1,-49.8Z" />
  </g>
</svg>