<svg xmlns="http://www.w3.org/2000/svg" viewBox="0 0 1440 320" preserveAspectRatio="none">
  <defs>
    <linearGradient id="statsGradient" x1="0%" y1="0%" x2="100%" y2="100%">
      <stop offset="0%" stop-color="#FF7F3F" stop-opacity="0.2" />
      <stop offset="100%" stop-color="#9C51B6" stop-opacity="0.2" />
    </linearGradient>
  </defs>
  <path fill="url(#statsGradient)" d="M0,224L48,213.3C96,203,192,181,288,181.3C384,181,480,203,576,192C672,181,768,139,864,128C960,117,1056,139,1152,149.3C1248,160,1344,160,1392,160L1440,160L1440,320L1392,320C1344,320,1248,320,1152,320C1056,320,960,320,864,320C768,320,672,320,576,320C480,320,384,320,288,320C192,320,96,320,48,320L0,320Z"></path>
  <path fill="url(#statsGradient)" d="M0,128L48,154.7C96,181,192,235,288,234.7C384,235,480,181,576,181.3C672,181,768,235,864,250.7C960,267,1056,245,1152,213.3C1248,181,1344,139,1392,117.3L1440,96L1440,320L1392,320C1344,320,1248,320,1152,320C1056,320,960,320,864,320C768,320,672,320,576,320C480,320,384,320,288,320C192,320,96,320,48,320L0,320Z"></path>
</svg>